<svg data-name="Layer 1" xmlns="http://www.w3.org/2000/svg" viewBox="0 0 16.04 15.38"><path d="M10.5,20.5" transform="translate(-7 -1.62)" style="fill:#fff;stroke:#000;stroke-miterlimit:10"/><circle cx="5" cy="10.38" r="4.5" style="fill:#fff;stroke:#000;stroke-miterlimit:10"/><rect x="13.65" y="6.77" width="4.91" height="3.21" transform="translate(3.64 -10.55) rotate(45)" style="fill:#fff;stroke:#000;stroke-miterlimit:10;stroke-width:0.5px"/><path d="M17.5,7.5c.12-.78.39-1.85,1-2,.77-.18,1.63,1.21,2,1s-.68-2.45,0-3a1.06,1.06,0,0,1,1,0" transform="translate(-7 -1.62)" style="fill:#fff;stroke:#000;stroke-miterlimit:10;stroke-width:0.5px"/><path d="M21.74,2.87" transform="translate(-7 -1.62)" style="fill:none;stroke:#000;stroke-miterlimit:10"/><path d="M22.24,3.36l.45-.13a.34.34,0,0,1,.14,0,.09.09,0,0,1,.06.11s-.05,0-.08,0a1.76,1.76,0,0,1-.79.05c.07-.07.19,0,.24.12l.43.74A2.45,2.45,0,0,1,22.28,4,.63.63,0,0,1,22,3.41c-.05.19.15.6.14.83a1.19,1.19,0,0,1-.62-.73c.43,0,.55.23.46-.34a2.47,2.47,0,0,0-.21-.75c0,.24.09.49.15.72a1.69,1.69,0,0,1,.49-.47A1.9,1.9,0,0,1,22.24,3.36Z" transform="translate(-7 -1.62)" style="fill:none;stroke:#b00;stroke-miterlimit:10;stroke-width:0.25px"/><path d="M12,9a1.62,1.62,0,0,0-1,0,1.69,1.69,0,0,0-1,1" transform="translate(-7 -1.62)" style="fill:none;stroke:#b00;stroke-miterlimit:10;stroke-width:0.25px"/><path d="M13.65,14a1.6,1.6,0,0,0,.92-.38,1.7,1.7,0,0,0,.54-1.31" transform="translate(-7 -1.62)" style="fill:none;stroke:#b00;stroke-miterlimit:10;stroke-width:0.25px"/></svg>