<svg data-name="Layer 1" xmlns="http://www.w3.org/2000/svg" viewBox="0 0 15.01 21.27"><path d="M15.5,22.5Z" transform="translate(-3.39 -1.73)" style="fill:#fff"/><polygon points="12.61 1.27 11.61 1.27 11.61 21.27 12.61 21.27 12.61 1.27 12.61 1.27"/><polygon points="14.38 4.88 14.4 4.45 14.61 1.28 1.4 0.41 2.44 2.9 1.08 5.22 2.21 6.5 0.93 7.62 13.94 8.47 14.14 8.49 14.38 4.88" style="fill:red;stroke:#000;stroke-miterlimit:10;stroke-width:0.75px"/><circle cx="7.48" cy="5.13" r="1.72" style="fill:#fff;stroke:#000;stroke-miterlimit:10;stroke-width:0.25px"/><rect x="11.49" y="4.86" width="1.88" height="1.23" transform="translate(4.13 -8.92) rotate(45)" style="fill:#fff;stroke:#000;stroke-miterlimit:10;stroke-width:0.25px"/><path d="M10.86,5.72a.58.58,0,0,0-.38,0,.64.64,0,0,0-.38.38" transform="translate(-3.39 -1.73)" style="fill:none;stroke:#b00;stroke-miterlimit:10;stroke-width:0.25px"/><path d="M11.5,7.63a.6.6,0,0,0,.35-.15.62.62,0,0,0,.2-.5" transform="translate(-3.39 -1.73)" style="fill:none;stroke:#b00;stroke-miterlimit:10;stroke-width:0.25px"/></svg>